<svg width="120.000000" height="20.000000" viewBox="0 0 120 20" fill="none" xmlns="http://www.w3.org/2000/svg" xmlns:xlink="http://www.w3.org/1999/xlink">
	<desc>
			Created with Pixso.
	</desc>
	<defs/>
	<path id="Star 1" d="M9.52 1.46L7.86 6.56C7.8 6.77 7.6 6.9 7.39 6.9L2.02 6.9C1.54 6.9 1.34 7.52 1.73 7.81L6.07 10.96C6.24 11.09 6.32 11.31 6.25 11.52L4.59 16.62C4.44 17.08 4.97 17.47 5.36 17.18L9.7 14.03C9.88 13.9 10.11 13.9 10.29 14.03L14.63 17.18C15.02 17.47 15.55 17.08 15.4 16.62L13.74 11.52C13.67 11.31 13.75 11.09 13.92 10.96L18.26 7.81C18.65 7.52 18.45 6.9 17.97 6.9L12.6 6.9C12.39 6.9 12.19 6.77 12.13 6.56L10.47 1.46C10.32 1 9.67 1 9.52 1.46Z" fill="#FFDA3B" fill-opacity="1.000000" fill-rule="evenodd"/>
	<path id="Star 2" d="M34.52 1.46L32.86 6.56C32.8 6.77 32.6 6.9 32.39 6.9L27.02 6.9C26.54 6.9 26.34 7.52 26.73 7.81L31.07 10.96C31.24 11.09 31.32 11.31 31.25 11.52L29.59 16.62C29.44 17.08 29.97 17.47 30.36 17.18L34.7 14.03C34.88 13.9 35.11 13.9 35.29 14.03L39.63 17.18C40.02 17.47 40.55 17.08 40.4 16.62L38.74 11.52C38.67 11.31 38.75 11.09 38.92 10.96L43.26 7.81C43.65 7.52 43.45 6.9 42.97 6.9L37.6 6.9C37.39 6.9 37.19 6.77 37.13 6.56L35.47 1.46C35.32 1 34.67 1 34.52 1.46Z" fill="#FFDA3B" fill-opacity="1.000000" fill-rule="evenodd"/>
	<path id="Star 3" d="M59.52 1.46L57.86 6.56C57.8 6.77 57.6 6.9 57.39 6.9L52.02 6.9C51.54 6.9 51.34 7.52 51.73 7.81L56.07 10.96C56.24 11.09 56.32 11.31 56.25 11.52L54.59 16.62C54.44 17.08 54.97 17.47 55.36 17.18L59.7 14.03C59.88 13.9 60.11 13.9 60.29 14.03L64.63 17.18C65.02 17.47 65.55 17.08 65.4 16.62L63.74 11.52C63.67 11.31 63.75 11.09 63.92 10.96L68.26 7.81C68.65 7.52 68.45 6.9 67.97 6.9L62.6 6.9C62.39 6.9 62.19 6.77 62.13 6.56L60.47 1.46C60.32 1 59.67 1 59.52 1.46Z" fill="#FFDA3B" fill-opacity="1.000000" fill-rule="evenodd"/>
	<path id="Star 4" d="M84.52 1.46L82.86 6.56C82.8 6.77 82.6 6.9 82.39 6.9L77.02 6.9C76.54 6.9 76.34 7.52 76.73 7.81L81.07 10.96C81.24 11.09 81.32 11.31 81.25 11.52L79.59 16.62C79.44 17.08 79.97 17.47 80.36 17.18L84.7 14.03C84.88 13.9 85.11 13.9 85.29 14.03L89.63 17.18C90.02 17.47 90.55 17.08 90.4 16.62L88.74 11.52C88.67 11.31 88.75 11.09 88.92 10.96L93.26 7.81C93.65 7.52 93.45 6.9 92.97 6.9L87.6 6.9C87.39 6.9 87.19 6.77 87.13 6.56L85.47 1.46C85.32 1 84.67 1 84.52 1.46Z" fill="#FFDA3B" fill-opacity="1.000000" fill-rule="evenodd"/>
	<path id="Star 5" d="M109.52 1.46L107.86 6.56C107.8 6.77 107.6 6.9 107.39 6.9L102.02 6.9C101.54 6.9 101.34 7.52 101.73 7.81L106.07 10.96C106.24 11.09 106.32 11.31 106.25 11.52L104.59 16.62C104.44 17.08 104.97 17.47 105.36 17.18L109.7 14.03C109.88 13.9 110.11 13.9 110.29 14.03L114.63 17.18C115.02 17.47 115.55 17.08 115.4 16.62L113.74 11.52C113.67 11.31 113.75 11.09 113.92 10.96L118.26 7.81C118.65 7.52 118.45 6.9 117.97 6.9L112.6 6.9C112.39 6.9 112.2 6.77 112.13 6.56L110.47 1.46C110.32 1 109.67 1 109.52 1.46Z" fill="#FFDA3B" fill-opacity="1.000000" fill-rule="evenodd"/>
</svg>
